<?xml version="1.0" encoding="utf-8"?>
<!-- Generator: Adobe Illustrator 19.1.0, SVG Export Plug-In . SVG Version: 6.00 Build 0)  -->
<svg version="1.1" id="Layer_1" xmlns="http://www.w3.org/2000/svg" xmlns:xlink="http://www.w3.org/1999/xlink" x="0px" y="0px"
	 viewBox="0 0 {width} {height}" style="enable-background:new 0 0 612 792;" xml:space="preserve">
<style type="text/css">
	.st0{fill:#FFFFFF;}
</style>
<g>
	<g>
		<path d="M-169-79c317.3,0,634.7,0,952,0c0,317.3,0,634.7,0,952c-317.3,0-634.7,0-952,0C-169,555.7-169,238.3-169-79z M159.4-4
			c-0.5-0.2-1-0.4-1.4-0.6c0-6.5-0.1-12.9,0-19.4c0.1-4.4-1.2-8.2-4.8-11c-5.3-4.2-10.8-8.3-16.1-12.5
			c-10.4-8.3-20.6-16.8-31.1-24.9c-5.4-4.2-11.2-4.6-16.9-0.3C76.4-63,63.2-54,51.2-43.6C30.9-25.8,11.3-7.2-8.4,11.2
			c-9.5,8.9-18.7,18-27.7,27.3c-1.8,1.9-2.8,5.4-2.8,8.1c0.2,6.4,2,12.9,1.9,19.3c-0.3,24.3-1.1,48.6-1.6,72.9
			c-0.1,2.9-1.5,3.9-3.9,4.8c-4.1,1.6-8.8,3-12,5.8c-11,9.9-21.5,20.3-32,30.7c-1.1,1.1-1.4,3-2.1,4.6c0.3,0.3,0.6,0.6,1,0.9
			c1.7-0.8,3.9-1.1,5.1-2.4c6.9-7.4,16-7.5,25-7.7c12.6-0.4,19.2,6.2,19.3,18.8c0,6.2-0.3,12.3-0.5,18.5
			c-0.5,18.1-0.4,36.3-1.8,54.4c-1.8,23.2-2.3,46.6-9.4,69.1c-2.6,8.3-4.5,16.2-15.8,17.8c-7.8,1.1-15.6,4.9-22.4,9.2
			c-23.9,15-44.6,33.7-61.1,56.8c-1.1,1.6-1.7,3.5-2.6,5.3c0.4,0.4,0.8,0.7,1.2,1.1c2.2-1.2,4.6-2.2,6.7-3.6
			c4.3-2.9,8.3-6.2,12.7-8.8c9.8-5.9,21.1-5.7,31.9-7.1c3.8-0.5,8-1.3,11.4-0.1c9.1,3.3,18.4,3.2,27.6,2.6
			c19.7-1.2,37.5-8.2,52.9-20.6c6.3-5.1,11.6-11.5,17.5-17.1C25.2,357,32,339.6,31.6,318.3c-0.8-45.5-0.6-91-0.7-136.5
			c0-1.7,0.2-3.5,0.3-4.9c25.2,0.5,49.6,1,74.1,1.3c3.3,0,3.9,1.6,3.9,4.3c0,7.3,0,14.7,0.1,22c0.6,38.5,1.3,77,1.9,115.4
			c0,2-0.5,4.5-1.6,6c-3.7,4.9-8,9.4-11.8,14.2c-1.7,2.1-3,4.6-4.4,6.8c2.4,1.8,4.4,3.1,6,4.6c11.3,10.7,22.5,21.6,33.8,32.3
			c4.8,4.5,7.1,4.4,12.2,0c8.2-7.3,17-14.1,24.5-22c15.6-16.4,30.5-33.4,45.6-50.3c1.9-2.1,2.8-5.1,4.2-7.8
			c-0.6-0.5-1.3-1.1-1.9-1.6c-8.7,7.5-17.5,14.9-26.6,22.7c-0.2-1.6-0.4-2.6-0.4-3.5c-0.6-46.7-1.1-93.3-1.7-140
			c-0.1-4.1,0.6-6.6,5.4-7c2-0.1,4.2-1.5,5.7-2.9c13-12.8,25.9-25.7,38.7-38.7c1.2-1.2,1.6-3.1,2.9-5.6c-5.9,0.7-10.7,1.8-15.6,1.9
			c-10.7,0.3-21.3,0-32,0.3c-4.6,0.1-5.5-1.5-5.5-5.7c-0.2-30-0.7-60-1.1-90c-0.2-14.5-0.1-29-0.5-43.5c-0.1-5.1,3.8-6.4,6.8-8.2
			c1.3-0.8,4.3,0.3,5.9,1.4c7,4.5,13.8,9.2,20.6,14c11,7.8,22,15.5,32.8,23.5c6.1,4.5,11.2,10.4,12.4,18.1
			c1.4,9.3,2.3,18.8,2.4,28.3c0.7,53.6,1,107.3,1.7,160.9c0.3,26,0.9,51.9,1.9,77.9c0.6,14.8,2.2,29.5,3.8,44.2
			c0.3,3.2,2.4,6.3,3.7,9.5c3.2-1.4,7-2.1,9.7-4.2c9.3-7.5,18.6-15.1,27.3-23.4c13-12.4,25.3-25.4,37.9-38.1
			c2.1-2.2,4.1-4.5,6.4-6.9c0.7,1.2,1,1.5,1,1.8c-0.6,19.9-3.8,39.4-11.2,58c-0.9,2.4-4,4.9-6.5,5.4c-13.5,2.7-25.2,8.7-36.4,16.7
			c-20.6,14.6-38.6,31.7-53.2,52.2c-0.8,1.2-1.2,2.7-1.8,4.1c0.4,0.4,0.8,0.8,1.2,1.2c2.3-1.3,5-2.3,7-3.9
			c7.6-6.4,15.9-11.6,25.9-13.4c6.4-1.2,12.9-1.7,19.3-2.3c3.5-0.3,7.4-1.2,10.4-0.1c9.1,3.4,18.4,3,27.6,2.7
			c17.8-0.4,33.8-7.4,48.2-17c8.7-5.8,15.5-14.5,23.2-21.9c14.6-14.1,21.1-31.1,20.8-51.5c-0.7-45.7-0.5-91.3-0.7-137
			c0-1.7,0.2-3.5,0.4-5c25.1,0.5,49.6,1,74,1.3c3.3,0,3.9,1.5,3.9,4.3c0,7.7,0,15.3,0.1,23c0.6,38.3,1.3,76.6,1.8,114.9
			c0,2-0.7,4.4-1.9,5.9c-3.9,5-8.3,9.5-12.2,14.4c-1.5,1.9-2.4,4.2-3.6,6.3c2.2,1.6,4.1,2.7,5.6,4.2c11.4,10.8,22.7,21.8,34.1,32.6
			c4.8,4.5,6.9,4.4,12.1-0.1c8.5-7.5,17.1-14.9,25.3-22.6c16.6-15.5,31.9-32.2,45.3-50.5c1.5-2.1,2.5-4.6,3.7-6.9
			c-0.6-0.5-1.3-1.1-1.9-1.6c-8.8,7.5-17.5,14.9-26.7,22.8c-0.2-1.9-0.4-3.2-0.4-4.5c-0.5-46.2-1-92.3-1.6-138.5
			c-0.1-4.4,0.3-7.5,5.7-7.7c1.7-0.1,3.6-1.2,4.8-2.4c13.2-13.1,26.4-26.2,39.4-39.4c1.1-1.1,1.5-3,2.5-5.2
			c-6.2,0.7-11.2,1.7-16.3,1.9c-10.5,0.3-21,0-31.5,0.3c-3.9,0.1-5.1-1-5.1-5.1c-0.2-30-0.7-60-1.1-90c-0.2-14.7-0.1-29.3-0.5-44
			c-0.1-5.1,3.7-6.3,6.6-8.4c0.9-0.7,3.3-0.5,4.3,0.2c18.7,13,37.4,26,55.9,39.3c6.1,4.4,10.7,10.4,11.8,17.8
			c1.4,9,2.2,18.2,2.3,27.3c0.7,54.3,1.6,108.6,1.3,162.9c-0.2,40,1.5,79.8,5.9,119.6c0.4,3.6,2.3,7,3.6,10.5
			c3.5-1.5,7.6-2.4,10.5-4.7c9.3-7.5,18.7-15,27.3-23.4c15-14.6,29.4-29.8,43.9-44.9c1.2-1.3,1.6-3.3,2.4-5c-0.4-0.3-0.8-0.7-1.2-1
			c-13.7,8.1-24.2,20.6-38.1,30.9c-1-6.3-2.1-11.4-2.6-16.6c-0.7-8-0.9-16-1.5-23.9c-0.8-10.4-2.5-20.8-2.8-31.3
			c-0.8-24.6-1.3-49.3-1.5-73.9c-0.4-54-0.5-108-1-162c-0.1-9,2.3-16.4,9.4-22.3c4-3.3,7.3-7.3,10.7-11.1c1.4-1.5,2.2-3.6,3.2-5.4
			c-0.3-0.3-0.7-0.5-1-0.8c-1.6,1.1-3.4,2-4.9,3.2c-6.4,5.2-12.8,10.6-19.2,15.9c-2.1,1.7-3.9,2.5-6.4,0
			c-17.4-17.5-37.5-31.8-57.6-46c-7.9-5.6-10.3-5.6-18.1,0.2c-8.6,6.5-17.2,13.1-25.5,20c-14.2,11.8-28.1,23.9-42.1,35.9
			c-1.1,1-2.4,1.7-4.8,3.4c0-7.9-0.1-14.4,0-20.9c0.1-4.4-1.2-8.2-4.8-10.9c-5.4-4.1-10.8-8.3-16.1-12.5
			c-10.4-8.3-20.6-16.8-31.1-24.9c-5.6-4.4-11.4-4.2-17.4,0c-19.8,13.6-38.4,28.7-55.9,45.1c-12,11.3-24.1,22.5-36.1,33.8
			c-10.9,10.3-21.8,20.6-32.2,31.3c-2.1,2.2-3.3,6.2-3.3,9.4c0,5.8,1.8,11.5,1.8,17.3c-0.3,24.8-1,49.6-1.7,74.4
			c0,1.5-1.9,3.5-3.5,4.4c-3.9,2.2-8.6,3.1-11.9,5.9c-8.2,6.8-15.7,14.3-23.5,21.5c-2.9,2.8-5.8,5.6-9.7,9.5
			c-0.5-6.1-1.3-10.7-1.3-15.3c-0.4-53.7-0.5-107.3-1-161c-0.1-9.2,2.6-16.7,9.8-22.6c3.8-3.1,7.1-7.1,10.4-10.8
			c1.4-1.5,2.2-3.6,3.2-5.4c-2.5,0.2-4.2,0.9-5.5,2.1c-6.3,5.1-12.7,10.2-18.8,15.6c-3.2,2.8-5.2,2.6-8.3-0.4
			c-17.4-17.5-37.7-31.5-57.6-45.9c-5.6-4-10.9-3.8-16.2,0.5c-7.7,6.3-15.8,12.2-23.4,18.6c-15.2,12.6-30.2,25.5-45.3,38.2
			C161.5-5.5,160.4-4.8,159.4-4z M-25.7,854.1c0.4,0.3,0.7,0.7,1.1,1c4.5-3.6,9.2-6.9,13.5-10.7c16.8-14.9,33.7-29.7,50.2-45
			c16.1-14.9,32.1-30,45.4-47.7c5.3-7,7.7-15,8.4-23.2c1.6-21.2,2.6-42.5,3.2-63.7c0.7-22.2,0.8-44.5,1.1-66.8c0.3-21,0.5-42,5-62.6
			c1.6-7.4,3.6-15.4,8-21.2c8.4-11.3,18.3-21.6,28.1-31.8c3.1-3.2,7.5-6.3,11.7-7c8.2-1.4,16.6-1,24.9-1.3c1.6,0,3.1,0.4,5.5,0.8
			c-1.9,3.4-3.5,6.1-5,8.8c-6.7,11.7-11.6,23.8-11.6,37.7c0.2,56.7,0.1,113.3,0.2,170c0,13-2.5,25.3-7.3,37.3
			c-6.2,15.5-17.5,27-28.4,38.9c-5,5.4-10.6,10.9-17.1,14.2c-8,4.1-17.1,6.3-25.8,8.9c-14.8,4.6-29.6,8.9-42.4,18.3
			c-16.8,12.4-31.3,27.4-45.5,42.5c-4.3,4.6-8.2,9.6-12.3,14.4c0.3,0.3,0.7,0.6,1,0.9c1.3-1,2.5-2,3.9-2.9c10.3-6.4,20.1-13.7,31-19
			c9-4.4,19.1-6.8,28.8-9.5c21.5-6,43-12.3,65.7-11.1c10.3,0.5,20.6,1.8,30.9,1.9c23.4,0.2,46,5.8,68.7,10.6
			c19,4,38.1,7.3,57.2,10.7c8.8,1.6,17.6,3.3,25.5,7.8c1.8,1,2.7,3.9,3.8,6c0.5,0.9,0.2,2.2,0.5,4.7c3.1-2.3,5.5-3.9,7.6-5.7
			c5.2-4.6,10.1-9.6,15.4-14.1c7.5-6.5,15.5-12.5,22.9-19.1c10.3-9.1,20.5-18.5,30.6-27.9c12-11.3,23.9-22.6,35.7-34.2
			c1.8-1.7,3.3-4.5,3.6-6.9c1-7.7,1.8-15.6,1.8-23.4c0-11.3-1.2-22.6-1.1-34c0.4-39.2-3-78.2-6.7-117.1c-0.8-7.9-1.6-15.9-3.2-23.7
			c-3-13.9-6.5-27.7-10-41.4c-5-19.7-9-39.6-21-56.9c-10.3-14.8-23.1-25.9-41-28c-20.6-2.4-41.5-3.4-62.3-3.9
			c-37.1-0.7-74.2-0.5-111.4-0.8c-17.1-0.1-34.3-0.6-51.4-1c-16.5-0.4-33-0.9-49.4-1.3c-25.1-0.6-50.3-1.3-75.4-1.5
			c-8.4-0.1-15.3-1.3-18-11.2c-1.4,1.6-2.8,2.4-3.1,3.5c-2.4,9.6-4.5,18.9,2.2,28.1c4.9,6.7,10.8,12,17.4,16.9
			c10.6,8,22.9,9.7,35.4,10.3c15.1,0.7,30.3,0,45.4,0.6c21.7,0.8,43.1,6.1,65,2.2c0.7-0.1,1.5,0.3,3.1,0.6c-1.3,1.4-2.1,2.4-3,3.2
			c-25.9,21.5-51.6,43.3-74.5,68c-3.1,3.4-5.9,8-6.7,12.5c-2.3,13.6-4,27.4-5.1,41.1c-1.3,15.6-1.8,31.2-2.6,46.9
			c-0.3,5.5-1.9,8.6-8.1,10.3c-17.3,4.7-27.2,18.8-37.9,31.8c-0.4,0.5-0.1,1.7-0.1,3.7c3.1-2.7,5.3-4.9,7.7-6.7
			c6.8-5.3,14.4-6.3,21.3-1.4c10,7.2,15.3,17.8,16.9,29.9c0.7,5.2-0.2,10.6-0.6,15.9c-1.1,13.9-2,27.9-3.8,41.7
			c-1.1,9.1-3.4,18-10.1,25c-16.7,17.4-33.3,34.8-50,52.3C-23.5,851.5-24.6,852.8-25.7,854.1z M482.5,656.1c-0.3-1.7-0.4-2.4-0.4-3
			c-0.1-53.3-0.1-106.6-0.1-159.9c0-9.1,3-16.8,9.9-23c0.9-0.8,1.4-2.2,2.1-3.4c-0.3-0.3-0.6-0.6-0.9-0.9c-3.4,2-6.8,4.1-10.4,6
			c-11.1,5.8-22.5,11.2-33.4,17.5c-3.7,2.1-5.9,1.8-8.9-0.4c-8.3-6.6-16.7-13.1-25.2-19.5c-1-0.8-2.5-1-3.7-1.5
			c-0.3,0.4-0.6,0.9-0.8,1.3c4.7,6.5,9.6,12.9,14.2,19.6c5.7,8.1,9.7,16.7,9.6,27.1c-0.4,49-0.4,98-0.4,146.9
			c0,20.8,0.2,41.6,0.7,62.5c0.6,26,1.5,51.9,2.4,77.9c0.1,3.9-1.1,6.6-4.6,8.6c-3.2,1.9-6.1,4.4-9.6,7.1c1.3,1.1,2.3,2.2,3.5,3
			c7.2,5,14.7,9.6,21.7,15c9.6,7.4,19.8,14.2,26.3,24.9c0.7,1.1,4.3,1.6,5.9,0.9c20.1-9.1,40.3-18,60.1-27.8
			c17.7-8.9,34.9-18.9,52.3-28.4c4.9-2.7,7.5-6.8,7.7-12.6c0.9-22.6,2.3-45.2,3-67.8c0.6-21.8,0.7-43.6,0.7-65.5
			c0-11.8-0.4-23.7-1.3-35.4c-1-13-6.1-24.4-14.9-34c-1.1-1.2-3.9-2.4-4.9-1.8c-14.8,8.2-29.9,15.9-43.8,25.4
			c-17.3,11.7-33.6,25-50.3,37.5C487.1,653.4,485.1,654.5,482.5,656.1z"/>
		<path class="st0" d="M159.4-4c1-0.8,2.1-1.5,3-2.3c15.1-12.7,30.1-25.6,45.3-38.2c7.7-6.4,15.7-12.3,23.4-18.6
			c5.4-4.3,10.7-4.6,16.2-0.5c19.9,14.5,40.2,28.4,57.6,45.9c3,3.1,5.1,3.2,8.3,0.4c6.1-5.4,12.4-10.5,18.8-15.6
			c1.4-1.1,3-1.9,5.5-2.1c-1.1,1.8-1.9,3.8-3.2,5.4c-3.3,3.8-6.5,7.7-10.4,10.8c-7.3,6-9.9,13.4-9.8,22.6c0.5,53.7,0.6,107.3,1,161
			c0,4.6,0.8,9.2,1.3,15.3c3.9-3.8,6.7-6.7,9.7-9.5c7.8-7.3,15.4-14.8,23.5-21.5c3.3-2.8,8.1-3.7,11.9-5.9c1.5-0.9,3.4-2.9,3.5-4.4
			c0.8-24.8,1.4-49.6,1.7-74.4c0.1-5.8-1.8-11.5-1.8-17.3c0-3.2,1.2-7.2,3.3-9.4c10.5-10.7,21.4-21,32.2-31.3
			c12-11.3,24.1-22.5,36.1-33.8c17.5-16.4,36.1-31.5,55.9-45.1c6-4.2,11.7-4.4,17.4,0c10.5,8.2,20.7,16.6,31.1,24.9
			c5.3,4.2,10.7,8.4,16.1,12.5c3.6,2.8,4.9,6.5,4.8,10.9c-0.1,6.5,0,12.9,0,20.9c2.4-1.7,3.7-2.5,4.8-3.4c14.1-12,28-24.1,42.1-35.9
			c8.3-6.9,16.9-13.5,25.5-20c7.8-5.9,10.2-5.8,18.1-0.2c20.1,14.2,40.1,28.5,57.6,46c2.5,2.5,4.3,1.8,6.4,0
			c6.4-5.3,12.7-10.6,19.2-15.9c1.5-1.2,3.3-2.1,4.9-3.2c0.3,0.3,0.7,0.5,1,0.8c-1.1,1.8-1.9,3.8-3.2,5.4
			c-3.4,3.9-6.8,7.9-10.7,11.1c-7.2,5.9-9.5,13.3-9.4,22.3c0.5,54,0.5,108,1,162c0.2,24.7,0.7,49.3,1.5,73.9
			c0.3,10.4,2,20.8,2.8,31.3c0.6,8,0.8,16,1.5,23.9c0.5,5.2,1.6,10.3,2.6,16.6c13.9-10.3,24.4-22.8,38.1-30.9c0.4,0.3,0.8,0.7,1.2,1
			c-0.8,1.7-1.2,3.7-2.4,5c-14.5,15.1-28.9,30.3-43.9,44.9c-8.6,8.4-17.9,15.9-27.3,23.4c-2.9,2.3-6.9,3.2-10.5,4.7
			c-1.2-3.5-3.2-6.9-3.6-10.5c-4.4-39.7-6.1-79.6-5.9-119.6c0.2-54.3-0.7-108.6-1.3-162.9c-0.1-9.1-0.9-18.3-2.3-27.3
			c-1.2-7.4-5.8-13.5-11.8-17.8c-18.5-13.3-37.2-26.3-55.9-39.3c-1-0.7-3.4-0.9-4.3-0.2c-2.9,2.1-6.8,3.3-6.6,8.4
			c0.4,14.7,0.3,29.3,0.5,44c0.4,30,0.9,60,1.1,90c0,4,1.2,5.2,5.1,5.1c10.5-0.3,21,0,31.5-0.3c5.1-0.1,10.2-1.1,16.3-1.9
			c-1.1,2.2-1.4,4.1-2.5,5.2c-13.1,13.2-26.2,26.4-39.4,39.4c-1.2,1.2-3.2,2.4-4.8,2.4c-5.4,0.2-5.8,3.3-5.7,7.7
			c0.6,46.2,1.1,92.3,1.6,138.5c0,1.3,0.2,2.6,0.4,4.5c9.2-7.8,17.9-15.3,26.7-22.8c0.6,0.5,1.3,1.1,1.9,1.6
			c-1.2,2.3-2.2,4.8-3.7,6.9c-13.4,18.4-28.6,35.1-45.3,50.5c-8.3,7.7-16.9,15.1-25.3,22.6c-5.2,4.6-7.3,4.7-12.1,0.1
			c-11.4-10.8-22.7-21.8-34.1-32.6c-1.5-1.5-3.4-2.5-5.6-4.2c1.2-2.1,2.1-4.4,3.6-6.3c4-4.9,8.3-9.5,12.2-14.4
			c1.2-1.6,2-3.9,1.9-5.9c-0.5-38.3-1.2-76.6-1.8-114.9c-0.1-7.7-0.2-15.3-0.1-23c0-2.8-0.6-4.2-3.9-4.3c-24.5-0.3-48.9-0.8-74-1.3
			c-0.1,1.5-0.4,3.2-0.4,5c0.2,45.7,0,91.3,0.7,137c0.3,20.4-6.1,37.4-20.8,51.5c-7.7,7.4-14.5,16.1-23.2,21.9
			c-14.4,9.6-30.4,16.5-48.2,17c-9.3,0.2-18.6,0.6-27.6-2.7c-3-1.1-6.9-0.2-10.4,0.1c-6.5,0.6-12.9,1.1-19.3,2.3
			c-9.9,1.8-18.2,7-25.9,13.4c-2,1.7-4.6,2.7-7,3.9c-0.4-0.4-0.8-0.8-1.2-1.2c0.6-1.4,1-2.9,1.8-4.1c14.7-20.5,32.6-37.6,53.2-52.2
			c11.2-7.9,22.9-13.9,36.4-16.7c2.5-0.5,5.6-3.1,6.5-5.4c7.4-18.6,10.6-38,11.2-58c0-0.3-0.3-0.6-1-1.8c-2.3,2.4-4.3,4.7-6.4,6.9
			c-12.6,12.8-25,25.7-37.9,38.1c-8.6,8.3-17.9,15.9-27.3,23.4c-2.6,2.1-6.4,2.9-9.7,4.2c-1.3-3.1-3.3-6.2-3.7-9.5
			c-1.6-14.7-3.2-29.4-3.8-44.2c-1-25.9-1.6-51.9-1.9-77.9c-0.7-53.6-1-107.3-1.7-160.9c-0.1-9.4-1-19-2.4-28.3
			c-1.2-7.7-6.2-13.5-12.4-18.1c-10.8-8-21.8-15.8-32.8-23.5c-6.8-4.8-13.6-9.5-20.6-14c-1.7-1.1-4.7-2.1-5.9-1.4
			c-3,1.8-6.9,3.1-6.8,8.2c0.4,14.5,0.3,29,0.5,43.5c0.4,30,0.9,60,1.1,90c0,4.3,1,5.9,5.5,5.7c10.7-0.3,21.3,0,32-0.3
			c4.9-0.1,9.7-1.2,15.6-1.9c-1.3,2.5-1.7,4.4-2.9,5.6c-12.8,13-25.7,25.9-38.7,38.7c-1.5,1.4-3.7,2.8-5.7,2.9
			c-4.8,0.3-5.5,2.8-5.4,7c0.7,46.7,1.2,93.3,1.7,140c0,1,0.2,1.9,0.4,3.5c9.1-7.8,17.8-15.2,26.6-22.7c0.6,0.5,1.3,1.1,1.9,1.6
			c-1.4,2.6-2.3,5.6-4.2,7.8c-15,16.9-30,33.9-45.6,50.3c-7.5,7.9-16.3,14.7-24.5,22c-5,4.5-7.4,4.6-12.2,0
			c-11.3-10.7-22.5-21.6-33.8-32.3c-1.6-1.6-3.6-2.8-6-4.6c1.4-2.2,2.7-4.7,4.4-6.8c3.9-4.8,8.1-9.3,11.8-14.2c1.2-1.6,1.7-4,1.6-6
			c-0.5-38.5-1.2-77-1.9-115.4c-0.1-7.3-0.1-14.7-0.1-22c0-2.7-0.6-4.3-3.9-4.3c-24.5-0.3-48.9-0.8-74.1-1.3
			c-0.1,1.4-0.4,3.2-0.3,4.9c0.2,45.5-0.1,91,0.7,136.5C32,339.6,25.2,357,10,371.5c-5.9,5.6-11.2,12-17.5,17.1
			C-22.9,401-40.7,408-60.4,409.2c-9.2,0.6-18.5,0.6-27.6-2.6c-3.4-1.2-7.6-0.4-11.4,0.1c-10.8,1.5-22.1,1.2-31.9,7.1
			c-4.4,2.7-8.4,6-12.7,8.8c-2.1,1.4-4.5,2.4-6.7,3.6c-0.4-0.4-0.8-0.7-1.2-1.1c0.9-1.8,1.5-3.7,2.6-5.3
			c16.5-23,37.2-41.7,61.1-56.8c6.8-4.3,14.6-8.1,22.4-9.2c11.3-1.6,13.2-9.5,15.8-17.8c7.1-22.5,7.5-45.9,9.4-69.1
			c1.4-18.1,1.2-36.3,1.8-54.4c0.2-6.2,0.6-12.3,0.5-18.5c-0.1-12.6-6.7-19.1-19.3-18.8c-8.9,0.3-18.1,0.3-25,7.7
			c-1.2,1.3-3.4,1.6-5.1,2.4c-0.3-0.3-0.6-0.6-1-0.9c0.7-1.5,1-3.5,2.1-4.6c10.6-10.4,21.1-20.8,32-30.7c3.2-2.9,7.8-4.2,12-5.8
			c2.5-0.9,3.9-1.9,3.9-4.8c0.5-24.3,1.3-48.6,1.6-72.9c0.1-6.4-1.7-12.9-1.9-19.3c-0.1-2.7,1-6.2,2.8-8.1
			c9-9.4,18.2-18.5,27.7-27.3c19.7-18.4,39.3-37,59.6-54.7C63.2-54,76.4-63,89.1-72.7c5.7-4.4,11.5-3.9,16.9,0.3
			c10.5,8.2,20.7,16.6,31.1,24.9c5.3,4.2,10.8,8.3,16.1,12.5c3.5,2.8,4.8,6.6,4.8,11c-0.1,6.5,0,12.9,0,19.4
			C158.5-4.4,158.9-4.2,159.4-4z M30.8,167.3c0.5,0.2,1,0.4,1.5,0.6c1.7-1.5,3.5-2.9,5.1-4.5c9.5-9.8,18.8-19.8,28.7-29.2
			c2.6-2.5,7-4.2,10.6-4.3c9.8-0.4,19.6,0,29.4,0.6c4.1,0.2,5.4-1.2,5.5-4.9c0.3-6.5,1.1-13,1-19.4c-0.5-28.6-1-57.3-2-85.9
			c-0.1-2.9-2-6.5-4.1-8.5c-5.3-5-11.3-9.2-17-13.7c-10.3-8.1-20.6-16.2-31-24.3c-3.5-2.7-6.8-2.6-10.4,0.3
			c-4.9,4-10.2,7.5-14.9,11.7c-1.6,1.4-2.8,4.2-2.8,6.3c0,54.3,0.2,108.6,0.4,162.9C30.8,159.1,30.8,163.2,30.8,167.3z M434.7,167.3
			c0.5,0.2,1,0.4,1.5,0.6c1.9-1.7,3.9-3.4,5.7-5.3c9.2-9.4,18.1-19.1,27.6-28.2c2.7-2.6,7.2-4.4,11-4.6c9.8-0.4,19.6,0.1,29.4,0.6
			c3.6,0.2,5.3-0.7,5.4-4.5c0.2-6.8,1-13.6,0.9-20.5c-0.4-28.5-1-56.9-1.8-85.4c-0.1-2.8-1.8-6.2-3.8-8.1
			c-5.6-5.2-11.8-9.7-17.8-14.4c-10.3-8.1-20.6-16.3-31.2-24c-1.9-1.4-6.1-1.8-8-0.6c-5.9,3.6-11.4,8.1-16.6,12.6
			c-1.6,1.4-2.8,4.2-2.8,6.3c0,54.1,0.2,108.3,0.4,162.4C434.7,158.7,434.7,163,434.7,167.3z M26.2-9c-4,3.7-6.9,6.8-10.3,9.5
			c-2.8,2.3-4.3,4.8-4.1,8.5c0.2,5.8,0.3,11.6,0.2,17.5c-0.3,23.6-0.9,47.2-1,70.8c-0.1,26.5,0.7,53.1,0.4,79.6
			c-0.4,28.4-1.6,56.9-2.4,85.3c-0.2,6.7,0.1,13.3-0.4,20c-1,12.6-1.2,25.4-8.6,36.5c-3.6,5.4-7.9,10.2-11.3,15.7
			c-6.2,9.9-14.7,17.6-23.6,24.9c-0.6,0.5-0.9,1.4-2.1,3.3c7.3-1.4,13.6-2,19.5-3.8c17.8-5.4,31.9-15.8,39.2-33.4
			c2.9-7,5.5-14.9,5.6-22.3c0.3-45.6-0.2-91.3-0.3-136.9C26.9,110,26.8,53.7,26.6-2.6C26.6-4.3,26.4-6.1,26.2-9z M430.4-7.5
			c-0.5-0.2-0.9-0.4-1.4-0.5c-3.1,2.9-6.1,6-9.4,8.7c-2.8,2.3-4.3,4.8-4.1,8.5c0.3,5.8,0.3,11.6,0.2,17.5
			c-0.3,23.4-0.8,46.9-0.9,70.3c-0.1,26.4,0.6,52.8,0.3,79.2c-0.4,32.9-1.6,65.9-2.4,98.8c-0.1,2.7,0,5.3-0.3,8
			c-1,12.5-1.6,25.1-8.7,36c-3.7,5.7-8.4,10.7-11.9,16.4c-5.8,9.4-13.9,16.5-22.2,23.4c-0.8,0.7-1.5,1.6-2.2,2.4
			c0.1,0.4,0.3,0.8,0.4,1.2c6.2-1.1,12.6-1.7,18.6-3.5c17.8-5.4,31.8-15.9,39.2-33.4c2.9-7,5.5-14.9,5.5-22.4
			c0.3-46.5-0.2-92.9-0.4-139.4c-0.2-44.5-0.3-88.9-0.4-133.4C430.4,17.7,430.4,5.1,430.4-7.5z M323.7,311.5c2.1-1.6,3-2.3,3.9-3
			c9.6-8.2,18.8-17,28.9-24.5c4.7-3.5,6.4-7,6.5-12.3c0.6-19.8,1.4-39.6,2-59.4c0.2-7,0.6-14,0.4-21c-0.3-8.3-4.5-13.6-12.7-14.9
			c-10.8-1.8-21.2-1.7-30.7,5.8c-4.3,3.4-5.3,6.5-5.5,11.5c-1.4,34.4,2.3,68.5,4.4,102.7C321.2,301.2,322.7,305.9,323.7,311.5z
			 M582.8,337.8c0.8-0.1,1.7-0.2,2.5-0.3c1.8-3.8,5.3-7.7,5.3-11.5c-0.2-48.5-0.9-97-1.4-145.5c0-3.4-1.3-4.2-4.4-4.1
			c-6,0.2-12,0.4-18,0.1c-4.1-0.2-5.2,1.3-5.1,5.2c0.3,15.3,0.5,30.7,0.6,46c0.2,27.3,0.3,54.7,0.5,82c0,2.9-0.4,6.8,1.2,8.6
			C569.8,325.1,576.4,331.3,582.8,337.8z M186.9,253.8c-0.6,0-1.2,0-1.7,0c0-24.3-0.1-48.7,0.1-73c0-3.5-1-4.7-4.6-4.5
			c-5.8,0.3-11.7,0.4-17.5,0.1c-4.1-0.2-5.6,1-5.5,5.3c0.4,15.5,0.5,31,0.6,46.5c0.2,28,0.4,56,0.6,84c0,2.1-0.1,4.8,1.1,6.1
			c5.5,6,11.3,11.7,17.2,17.3c0.8,0.8,3.2,1.1,3.8,0.5c3.1-3.1,6.1-6,6-11.4C186.7,301.2,186.9,277.5,186.9,253.8z M183.5-8.3
			c-0.6-0.2-1.1-0.4-1.7-0.6c-6,4.9-12,9.9-18.1,14.7c-3.2,2.5-4,5.6-4,9.6c-0.1,20.5-0.1,41-0.7,61.5c-0.5,16-1.6,31.9-2.6,47.9
			c-0.3,4.2,1.3,5.7,5.5,5.3c5.5-0.4,11-0.4,16.5-0.5c6.5-0.1,6.5,0,6.4-6.7c-0.4-35-0.9-70-1.3-105C183.4,9.2,183.5,0.5,183.5-8.3z
			 M586.8-9.6c-6.6,5.2-11.9,9.7-17.4,13.9c-4.6,3.4-5.9,7.7-5.8,13.3c0.1,20.5-0.2,41-0.8,61.4c-0.4,15.3-1.5,30.6-2.3,45.9
			c-0.2,4.2,1.3,5.6,5.5,5.3c5.3-0.5,10.6-0.4,16-0.5c6.9-0.1,6.9,0,6.8-6.9c-0.5-42.1-1-84.3-1.5-126.4
			C587.1-5.2,586.9-6.8,586.8-9.6z"/>
		<path class="st0" d="M-25.7,854.1c1.1-1.3,2.2-2.6,3.3-3.8c16.6-17.4,33.3-34.9,50-52.3c6.7-7,9-15.9,10.1-25
			c1.7-13.8,2.6-27.8,3.8-41.7c0.4-5.3,1.3-10.7,0.6-15.9c-1.6-12.1-6.9-22.7-16.9-29.9c-6.9-5-14.5-4-21.3,1.4
			c-2.4,1.9-4.6,4-7.7,6.7c0-2-0.4-3.2,0.1-3.7c10.6-13,20.6-27.1,37.9-31.8c6.2-1.7,7.8-4.8,8.1-10.3c0.7-15.6,1.3-31.3,2.6-46.9
			c1.2-13.8,2.8-27.5,5.1-41.1c0.8-4.4,3.5-9.1,6.7-12.5c22.9-24.8,48.5-46.5,74.5-68c0.9-0.8,1.7-1.8,3-3.2
			c-1.6-0.3-2.4-0.7-3.1-0.6c-21.8,3.9-43.3-1.3-65-2.2c-15.1-0.6-30.3,0.1-45.4-0.6c-12.5-0.6-24.8-2.3-35.4-10.3
			c-6.5-4.9-12.5-10.2-17.4-16.9c-6.7-9.2-4.7-18.5-2.2-28.1c0.3-1.1,1.6-1.9,3.1-3.5c2.7,9.9,9.6,11.2,18,11.2
			c25.1,0.2,50.3,0.9,75.4,1.5c16.5,0.4,33,0.9,49.4,1.3c17.1,0.4,34.3,0.9,51.4,1c37.1,0.3,74.3,0.1,111.4,0.8
			c20.8,0.4,41.7,1.4,62.3,3.9c17.9,2.1,30.8,13.2,41,28c12,17.3,16,37.2,21,56.9c3.5,13.8,7,27.5,10,41.4
			c1.7,7.8,2.5,15.8,3.2,23.7c3.7,39,7.1,77.9,6.7,117.1c-0.1,11.3,1.1,22.6,1.1,34c0,7.8-0.8,15.6-1.8,23.4
			c-0.3,2.4-1.8,5.2-3.6,6.9c-11.8,11.5-23.7,22.9-35.7,34.2c-10.1,9.4-20.2,18.8-30.6,27.9c-7.5,6.6-15.4,12.6-22.9,19.1
			c-5.3,4.5-10.2,9.5-15.4,14.1c-2.1,1.9-4.5,3.4-7.6,5.7c-0.2-2.6,0-3.8-0.5-4.7c-1.1-2.1-2-5-3.8-6c-7.9-4.5-16.6-6.2-25.5-7.8
			c-19.1-3.4-38.2-6.7-57.2-10.7c-22.7-4.8-45.2-10.3-68.7-10.6c-10.3-0.1-20.6-1.4-30.9-1.9c-22.7-1.2-44.2,5.2-65.7,11.1
			c-9.8,2.7-19.8,5.1-28.8,9.5c-10.8,5.3-20.7,12.5-31,19c-1.4,0.9-2.6,1.9-3.9,2.9c-0.3-0.3-0.7-0.6-1-0.9c4.1-4.8,8-9.8,12.3-14.4
			c14.3-15.1,28.7-30.1,45.5-42.5c12.7-9.4,27.6-13.7,42.4-18.3c8.7-2.7,17.8-4.8,25.8-8.9c6.4-3.3,12.1-8.8,17.1-14.2
			c10.9-11.8,22.2-23.4,28.4-38.9c4.8-12.1,7.3-24.3,7.3-37.3c-0.2-56.7,0-113.3-0.2-170c-0.1-13.9,4.8-26,11.6-37.7
			c1.5-2.7,3.1-5.4,5-8.8c-2.4-0.4-4-0.8-5.5-0.8c-8.3,0.2-16.8-0.1-24.9,1.3c-4.2,0.7-8.6,3.8-11.7,7
			c-9.8,10.2-19.7,20.5-28.1,31.8c-4.3,5.9-6.4,13.9-8,21.2c-4.5,20.6-4.7,41.6-5,62.6c-0.3,22.3-0.4,44.5-1.1,66.8
			c-0.7,21.3-1.6,42.5-3.2,63.7c-0.6,8.2-3.1,16.2-8.4,23.2c-13.3,17.7-29.3,32.8-45.4,47.7c-16.5,15.3-33.4,30.1-50.2,45
			c-4.3,3.8-9,7.2-13.5,10.7C-24.9,854.7-25.3,854.4-25.7,854.1z M230.9,550.5c0,21.8,0.3,43.6-0.2,65.4c-0.2,7.2,2.1,12.1,7.2,16.9
			c16.4,15.4,35,26.1,57.9,27.2c26.7,1.2,48.3-10.1,66.7-28.6c1.2-1.2,1.9-3.9,1.6-5.7c-1.5-9.3-3.2-18.7-5.2-27.9
			c-4-18.3-8-36.6-12.6-54.7c-1.9-7.6-5.2-15-8.4-22.2c-3.9-9-7.8-18-12.5-26.4c-4.3-7.7-10.5-14.6-19.8-15.4
			c-22.9-1.9-45.8-2.8-68.8-4.3c-4.5-0.3-6,1-6,5.8C231,503.8,230.9,527.2,230.9,550.5z M226.8,782.1c0.1-2.5,0.3-4.6,0.3-6.7
			c0-97.8,0-195.6,0-293.4c0-1-0.1-2,0-3c0.2-2.9-0.8-4-4-4c-10.7,0.2-21.3-0.2-32,0.1c-2.4,0.1-5.9,1.5-7,3.4
			c-5.2,8.9-11.1,17.7-14.1,27.3c-2.6,8.3-2,17.7-2.1,26.6c-0.2,52.3-0.4,104.6,0.1,157c0.1,16-3.9,30.5-10.3,44.7
			c-6.2,13.6-16.7,23.9-26.3,35c-3.1,3.6-6.4,7-10.6,11.5C156.9,773.8,191.4,779.6,226.8,782.1z M371.1,747
			c1.3-38.4-2-75.6-6.1-114.2c-20,19.3-41.6,30.7-68.2,29.8c-26.4-0.9-47.2-13.8-65.5-32.9c0,40.5,0,79.7,0,119.5
			C277.3,715.9,323.4,715,371.1,747z M371.3,769.5c0-3.8-0.3-7.7,0.1-11.5c0.6-5.1-1.6-8.3-5.7-11.2c-39.5-28.8-94.6-27.1-131.9,4.5
			c-1.5,1.3-2.7,3.8-2.8,5.8c-0.3,6.6-0.1,13.3-0.1,20c0,6.6,0.5,6.9,7.2,8.2c8,1.5,15.8,3.5,23.8,5.1c11.8,2.3,23.7,4.4,35.6,6.7
			c12.7,2.5,26,3.4,37.8,8.1c10.7,4.3,16.3,1.7,23.8-5.7C367.9,790.8,374.1,782.3,371.3,769.5z"/>
		<path class="st0" d="M482.5,656.1c2.5-1.6,4.5-2.7,6.3-4c16.7-12.6,33-25.8,50.3-37.5c13.9-9.5,29.1-17.2,43.8-25.4
			c1-0.6,3.8,0.6,4.9,1.8c8.8,9.6,13.9,21.1,14.9,34c0.9,11.8,1.2,23.6,1.3,35.4c0,21.8-0.1,43.6-0.7,65.5
			c-0.7,22.6-2.1,45.2-3,67.8c-0.2,5.8-2.8,9.9-7.7,12.6c-17.4,9.5-34.6,19.6-52.3,28.4c-19.7,9.9-39.9,18.8-60.1,27.8
			c-1.6,0.7-5.2,0.3-5.9-0.9c-6.5-10.8-16.7-17.5-26.3-24.9c-6.9-5.3-14.4-10-21.7-15c-1.2-0.8-2.1-1.8-3.5-3
			c3.5-2.6,6.4-5.2,9.6-7.1c3.5-2,4.7-4.7,4.6-8.6c-0.9-25.9-1.8-51.9-2.4-77.9c-0.5-20.8-0.7-41.6-0.7-62.5c0-49,0.1-98,0.4-146.9
			c0.1-10.5-4-19-9.6-27.1c-4.6-6.6-9.5-13-14.2-19.6c0.3-0.4,0.6-0.9,0.8-1.3c1.2,0.5,2.7,0.7,3.7,1.5c8.4,6.4,16.8,13,25.2,19.5
			c2.9,2.3,5.2,2.6,8.9,0.4c10.9-6.3,22.3-11.7,33.4-17.5c3.5-1.8,6.9-4,10.4-6c0.3,0.3,0.6,0.6,0.9,0.9c-0.7,1.1-1.1,2.5-2.1,3.4
			c-6.9,6.1-9.9,13.8-9.9,23c0.1,53.3,0.1,106.6,0.1,159.9C482.1,653.7,482.3,654.4,482.5,656.1z M557.3,705.6c-0.3,0-0.6,0-0.9,0
			c0-8.7,0.4-17.3-0.1-26c-1-17.2,1.5-35.1-8.6-50.9c-3.2-5-2.9-5.5-7.8-2c-17.8,12.5-35.5,25-53.5,37.2c-3.2,2.2-4.6,4.3-4.4,8
			c0.9,16.4,1.8,32.9,2.2,49.3c0.4,20.6,1.1,41.3,0.2,61.9c-0.5,10.9,1.7,19.1,10.3,26.2c7.5,6.2,14,13.8,20.9,20.7
			c2.6,2.6,5.1,3.8,9.2,1.6c7.4-3.9,15.4-6.9,23.1-10.3c2.7-1.2,4.6-2.5,4.7-6.1C554.1,778.7,555.7,742.1,557.3,705.6z"/>
		<path d="M30.8,167.3c0-4.1,0-8.2,0-12.3c-0.2-54.3-0.4-108.6-0.4-162.9c0-2.1,1.2-4.9,2.8-6.3c4.7-4.2,10-7.7,14.9-11.7
			c3.5-2.9,6.8-3.1,10.4-0.3c10.3,8.1,20.7,16.2,31,24.3c5.7,4.5,11.7,8.8,17,13.7c2.2,2,4.1,5.6,4.1,8.5c0.9,28.6,1.5,57.2,2,85.9
			c0.1,6.5-0.7,13-1,19.4c-0.1,3.7-1.5,5.2-5.5,4.9c-9.8-0.6-19.6-1-29.4-0.6c-3.6,0.1-8,1.8-10.6,4.3c-9.9,9.4-19.1,19.5-28.7,29.2
			c-1.6,1.6-3.4,3-5.1,4.5C31.8,167.8,31.3,167.5,30.8,167.3z"/>
		<path d="M434.7,167.3c0-4.3,0-8.6,0-12.8c-0.2-54.1-0.4-108.3-0.4-162.4c0-2.1,1.2-4.9,2.8-6.3c5.3-4.6,10.7-9,16.6-12.6
			c1.9-1.2,6.1-0.8,8,0.6c10.6,7.7,20.9,15.9,31.2,24c6,4.7,12.2,9.3,17.8,14.4c2.1,1.9,3.8,5.3,3.8,8.1c0.8,28.5,1.4,56.9,1.8,85.4
			c0.1,6.8-0.7,13.6-0.9,20.5c-0.1,3.7-1.8,4.6-5.4,4.5c-9.8-0.5-19.6-1-29.4-0.6c-3.8,0.2-8.3,2-11,4.6c-9.5,9-18.4,18.8-27.6,28.2
			c-1.8,1.9-3.8,3.5-5.7,5.3C435.7,167.7,435.2,167.5,434.7,167.3z"/>
		<path d="M26.2-9c0.2,2.9,0.3,4.7,0.3,6.4c0.2,56.3,0.3,112.6,0.5,168.9c0.2,45.6,0.7,91.3,0.3,136.9c-0.1,7.5-2.7,15.3-5.6,22.3
			c-7.3,17.6-21.4,28-39.2,33.4c-5.9,1.8-12.2,2.4-19.5,3.8c1.2-1.9,1.5-2.8,2.1-3.3c8.9-7.3,17.4-15,23.6-24.9
			c3.4-5.4,7.7-10.3,11.3-15.7c7.4-11.1,7.6-23.9,8.6-36.5c0.5-6.6,0.2-13.3,0.4-20c0.8-28.4,2-56.9,2.4-85.3
			c0.3-26.5-0.5-53.1-0.4-79.6c0.1-23.6,0.7-47.2,1-70.8c0.1-5.8,0-11.7-0.2-17.5c-0.2-3.7,1.3-6.2,4.1-8.5
			C19.3-2.1,22.3-5.3,26.2-9z"/>
		<path d="M430.4-7.5c0,12.6,0,25.2,0,37.9c0.1,44.5,0.3,88.9,0.4,133.4c0.2,46.5,0.7,92.9,0.4,139.4c0,7.5-2.6,15.4-5.5,22.4
			c-7.3,17.5-21.3,28-39.2,33.4c-6,1.8-12.4,2.4-18.6,3.5c-0.1-0.4-0.3-0.8-0.4-1.2c0.7-0.8,1.4-1.7,2.2-2.4
			c8.3-6.9,16.4-14,22.2-23.4c3.5-5.8,8.2-10.8,11.9-16.4c7.1-10.9,7.7-23.5,8.7-36c0.2-2.7,0.2-5.3,0.3-8c0.8-32.9,2-65.9,2.4-98.8
			c0.3-26.4-0.4-52.8-0.3-79.2c0.1-23.4,0.6-46.9,0.9-70.3c0.1-5.8,0-11.6-0.2-17.5c-0.2-3.7,1.3-6.3,4.1-8.5
			c3.3-2.7,6.3-5.8,9.4-8.7C429.5-7.9,430-7.7,430.4-7.5z"/>
		<path d="M323.7,311.5c-1.1-5.6-2.5-10.3-2.8-15.1c-2.1-34.2-5.8-68.3-4.4-102.7c0.2-5,1.2-8.1,5.5-11.5c9.5-7.5,19.9-7.6,30.7-5.8
			c8.1,1.4,12.4,6.6,12.7,14.9c0.2,7-0.2,14-0.4,21c-0.6,19.8-1.4,39.6-2,59.4c-0.2,5.3-1.8,8.8-6.5,12.3
			c-10.1,7.5-19.3,16.3-28.9,24.5C326.7,309.2,325.8,309.9,323.7,311.5z"/>
		<path d="M582.8,337.8c-6.4-6.5-13-12.7-18.9-19.5c-1.6-1.9-1.1-5.7-1.2-8.6c-0.2-27.3-0.3-54.7-0.5-82c-0.1-15.3-0.2-30.7-0.6-46
			c-0.1-3.9,1-5.4,5.1-5.2c6,0.3,12,0.2,18-0.1c3.2-0.1,4.4,0.7,4.4,4.1c0.5,48.5,1.2,97,1.4,145.5c0,3.8-3.4,7.7-5.3,11.5
			C584.4,337.6,583.6,337.7,582.8,337.8z"/>
		<path d="M186.9,253.8c0,23.7-0.2,47.3,0.1,71c0.1,5.3-3,8.2-6,11.4c-0.6,0.6-3,0.2-3.8-0.5c-5.9-5.6-11.7-11.3-17.2-17.3
			c-1.2-1.3-1.1-4.1-1.1-6.1c-0.2-28-0.4-56-0.6-84c-0.1-15.5-0.2-31-0.6-46.5c-0.1-4.3,1.4-5.5,5.5-5.3c5.8,0.3,11.7,0.2,17.5-0.1
			c3.6-0.2,4.6,1,4.6,4.5c-0.1,24.3-0.1,48.7-0.1,73C185.7,253.8,186.3,253.8,186.9,253.8z"/>
		<path d="M183.5-8.3c0,8.8-0.1,17.5,0,26.3c0.4,35,0.9,70,1.3,105c0.1,6.7,0.1,6.6-6.4,6.7c-5.5,0.1-11,0.1-16.5,0.5
			c-4.2,0.3-5.8-1.2-5.5-5.3c1-16,2.1-31.9,2.6-47.9c0.6-20.5,0.7-41,0.7-61.5c0-4,0.9-7.1,4-9.6c6.1-4.8,12-9.8,18.1-14.7
			C182.4-8.7,182.9-8.5,183.5-8.3z"/>
		<path d="M586.8-9.6c0.2,2.9,0.3,4.5,0.3,6c0.5,42.1,1,84.3,1.5,126.4c0.1,6.9,0.1,6.8-6.8,6.9c-5.3,0.1-10.7,0-16,0.5
			c-4.2,0.4-5.8-1.1-5.5-5.3c0.9-15.3,1.9-30.6,2.3-45.9c0.6-20.5,0.9-41,0.8-61.4c0-5.7,1.3-9.9,5.8-13.3
			C574.9,0.1,580.2-4.4,586.8-9.6z"/>
		<path d="M230.9,550.5c0-23.3,0.1-46.6-0.1-69.9c0-4.7,1.4-6.1,6-5.8c22.9,1.5,45.9,2.4,68.8,4.3c9.3,0.8,15.5,7.7,19.8,15.4
			c4.8,8.5,8.7,17.5,12.5,26.4c3.1,7.3,6.4,14.6,8.4,22.2c4.6,18.1,8.6,36.4,12.6,54.7c2,9.2,3.7,18.6,5.2,27.9
			c0.3,1.8-0.4,4.5-1.6,5.7c-18.4,18.5-40,29.8-66.7,28.6c-22.9-1.1-41.5-11.7-57.9-27.2c-5.1-4.8-7.4-9.7-7.2-16.9
			C231.2,594.1,230.9,572.3,230.9,550.5z"/>
		<path d="M226.8,782.1c-35.4-2.5-69.9-8.3-105.9-1.6c4.2-4.5,7.5-7.9,10.6-11.5c9.6-11,20.1-21.4,26.3-35
			c6.5-14.2,10.5-28.8,10.3-44.7c-0.4-52.3-0.2-104.6-0.1-157c0-8.9-0.5-18.3,2.1-26.6c3-9.7,8.9-18.5,14.1-27.3
			c1.1-1.9,4.6-3.3,7-3.4c10.6-0.3,21.3,0.1,32-0.1c3.2-0.1,4.2,1.1,4,4c-0.1,1,0,2,0,3c0,97.8,0,195.6,0,293.4
			C227.1,777.5,226.9,779.7,226.8,782.1z"/>
		<path d="M371.1,747c-47.7-32-93.8-31.1-139.8,2.2c0-39.8,0-79.1,0-119.5c18.3,19.1,39.1,32,65.5,32.9
			c26.6,0.9,48.2-10.5,68.2-29.8C369.1,671.4,372.4,708.6,371.1,747z"/>
		<path d="M371.3,769.5c2.8,12.8-3.5,21.3-12.3,29.9c-7.5,7.4-13.1,9.9-23.8,5.7c-11.8-4.7-25.1-5.7-37.8-8.1
			c-11.8-2.3-23.7-4.3-35.6-6.7c-7.9-1.6-15.8-3.6-23.8-5.1c-6.6-1.2-7.2-1.6-7.2-8.2c0-6.7-0.2-13.3,0.1-20c0.1-2,1.3-4.5,2.8-5.8
			c37.3-31.5,92.4-33.3,131.9-4.5c4,2.9,6.2,6,5.7,11.2C371,761.8,371.3,765.7,371.3,769.5z"/>
		<path d="M557.3,705.6c-1.6,36.6-3.3,73.1-4.7,109.7c-0.1,3.6-2,5-4.7,6.1c-7.7,3.4-15.7,6.3-23.1,10.3c-4.1,2.2-6.6,1-9.2-1.6
			c-7-6.9-13.4-14.5-20.9-20.7c-8.6-7.1-10.8-15.2-10.3-26.2c0.9-20.6,0.3-41.3-0.2-61.9c-0.4-16.5-1.3-32.9-2.2-49.3
			c-0.2-3.8,1.3-5.9,4.4-8c18-12.2,35.7-24.7,53.5-37.2c4.9-3.5,4.7-3,7.8,2c10.1,15.9,7.6,33.7,8.6,50.9c0.5,8.6,0.1,17.3,0.1,26
			C556.7,705.5,557,705.5,557.3,705.6z"/>
	</g>
</g>
</svg>
